<svg xmlns="http://www.w3.org/2000/svg" width="1280" height="590" viewBox="0 0 1280 590" role="img" aria-label="Systèmes en production : 6 sur 6 en ligne">
<style>
  .row{opacity:0;animation:in .6s ease-out forwards}
  .halo{transform-box:fill-box;transform-origin:center;animation:pulse 2.4s ease-in-out infinite}
  .live{animation:blink 1.6s steps(2,start) infinite}
  @keyframes in{from{opacity:0;transform:translateY(6px)}to{opacity:1;transform:none}}
  @keyframes pulse{0%,100%{transform:scale(.7);opacity:.35}50%{transform:scale(1.5);opacity:0}}
  @keyframes blink{to{visibility:hidden}}
  @media (prefers-reduced-motion:reduce){.row{animation:none;opacity:1}.halo,.live{animation:none}}
</style>
<defs>
  <linearGradient id="edge" x1="0" x2="1"><stop offset="0" stop-color="#36e0ff"/><stop offset=".55" stop-color="#8b5cf6"/><stop offset="1" stop-color="#36e0ff" stop-opacity="0"/></linearGradient>
  <pattern id="grid" width="32" height="32" patternUnits="userSpaceOnUse"><path d="M32 0H0V32" fill="none" stroke="#1a2333" stroke-width="1" opacity=".55"/></pattern>
</defs>
<rect width="1280" height="590" rx="22" fill="#0a0e16"/>
<rect width="1280" height="590" rx="22" fill="url(#grid)" opacity=".5"/>
<rect x="1" y="1" width="1278" height="588" rx="21" fill="none" stroke="#1a2333" stroke-width="2"/>
<rect x="40" y="0" width="420" height="3" fill="url(#edge)"/>

<circle cx="52" cy="58" r="6" fill="#34d399" class="live"/>
<text x="68" y="64" font-family="'JetBrains Mono','SFMono-Regular',Consolas,'Liberation Mono',Menlo,monospace" font-size="15" letter-spacing="3" fill="#36e0ff">SYSTÈMES EN PRODUCTION · LIVE</text>
<text x="40" y="104" font-family="'Inter','Segoe UI','Helvetica Neue',Arial,sans-serif" font-size="30" font-weight="800" fill="#f4f7fc">Sondés toutes les heures, depuis GitHub Actions.</text>
<text x="1240" y="70" text-anchor="end" font-family="'Inter','Segoe UI','Helvetica Neue',Arial,sans-serif" font-size="44" font-weight="800" fill="#34d399">6/6</text>
<text x="1240" y="98" text-anchor="end" font-family="'JetBrains Mono','SFMono-Regular',Consolas,'Liberation Mono',Menlo,monospace" font-size="13" letter-spacing="2" fill="#8fa3bf">EN LIGNE · DISPO 96,67 %</text>
<text x="560" y="142" font-family="'JetBrains Mono','SFMono-Regular',Consolas,'Liberation Mono',Menlo,monospace" font-size="11.5" letter-spacing="1.5" fill="#5b6b82">48 DERNIERS RELEVÉS</text>
<text x="1060" y="142" text-anchor="end" font-family="'JetBrains Mono','SFMono-Regular',Consolas,'Liberation Mono',Menlo,monospace" font-size="11.5" letter-spacing="1.5" fill="#5b6b82">MÉDIANE 24 H</text>
<text x="1210" y="142" text-anchor="end" font-family="'JetBrains Mono','SFMono-Regular',Consolas,'Liberation Mono',Menlo,monospace" font-size="11.5" letter-spacing="1.5" fill="#5b6b82">DISPO</text>

  <g class="row" style="animation-delay:0.15s">
    <rect x="40" y="156" width="1200" height="52" rx="12" fill="#0f1623"/>
    <circle cx="72" cy="182" r="11" fill="#34d399" opacity=".18" class="halo"/>
    <circle cx="72" cy="182" r="5.5" fill="#34d399"/>
    <text x="98" y="179" font-family="'Inter','Segoe UI','Helvetica Neue',Arial,sans-serif" font-size="19" font-weight="700" fill="#f4f7fc">NullAgency.on</text>
    <text x="98" y="198" font-family="'JetBrains Mono','SFMono-Regular',Consolas,'Liberation Mono',Menlo,monospace" font-size="12.5" fill="#5b6b82">nullagency.online  ·  agence · design system maison</text>
    <rect x="560" y="170" width="5" height="24" rx="1.5" fill="#1a2333" opacity="1"/><rect x="568" y="170" width="5" height="24" rx="1.5" fill="#1a2333" opacity="1"/><rect x="576" y="170" width="5" height="24" rx="1.5" fill="#1a2333" opacity="1"/><rect x="584" y="170" width="5" height="24" rx="1.5" fill="#1a2333" opacity="1"/><rect x="592" y="170" width="5" height="24" rx="1.5" fill="#1a2333" opacity="1"/><rect x="600" y="170" width="5" height="24" rx="1.5" fill="#1a2333" opacity="1"/><rect x="608" y="170" width="5" height="24" rx="1.5" fill="#1a2333" opacity="1"/><rect x="616" y="170" width="5" height="24" rx="1.5" fill="#1a2333" opacity="1"/><rect x="624" y="170" width="5" height="24" rx="1.5" fill="#1a2333" opacity="1"/><rect x="632" y="170" width="5" height="24" rx="1.5" fill="#1a2333" opacity="1"/><rect x="640" y="170" width="5" height="24" rx="1.5" fill="#1a2333" opacity="1"/><rect x="648" y="170" width="5" height="24" rx="1.5" fill="#1a2333" opacity="1"/><rect x="656" y="170" width="5" height="24" rx="1.5" fill="#1a2333" opacity="1"/><rect x="664" y="170" width="5" height="24" rx="1.5" fill="#1a2333" opacity="1"/><rect x="672" y="170" width="5" height="24" rx="1.5" fill="#1a2333" opacity="1"/><rect x="680" y="170" width="5" height="24" rx="1.5" fill="#1a2333" opacity="1"/><rect x="688" y="170" width="5" height="24" rx="1.5" fill="#1a2333" opacity="1"/><rect x="696" y="170" width="5" height="24" rx="1.5" fill="#1a2333" opacity="1"/><rect x="704" y="170" width="5" height="24" rx="1.5" fill="#1a2333" opacity="1"/><rect x="712" y="170" width="5" height="24" rx="1.5" fill="#1a2333" opacity="1"/><rect x="720" y="170" width="5" height="24" rx="1.5" fill="#1a2333" opacity="1"/><rect x="728" y="170" width="5" height="24" rx="1.5" fill="#1a2333" opacity="1"/><rect x="736" y="170" width="5" height="24" rx="1.5" fill="#1a2333" opacity="1"/><rect x="744" y="170" width="5" height="24" rx="1.5" fill="#1a2333" opacity="1"/><rect x="752" y="170" width="5" height="24" rx="1.5" fill="#1a2333" opacity="1"/><rect x="760" y="170" width="5" height="24" rx="1.5" fill="#1a2333" opacity="1"/><rect x="768" y="170" width="5" height="24" rx="1.5" fill="#1a2333" opacity="1"/><rect x="776" y="170" width="5" height="24" rx="1.5" fill="#1a2333" opacity="1"/><rect x="784" y="170" width="5" height="24" rx="1.5" fill="#34d399" opacity="0.85"/><rect x="792" y="170" width="5" height="24" rx="1.5" fill="#34d399" opacity="0.85"/><rect x="800" y="170" width="5" height="24" rx="1.5" fill="#34d399" opacity="0.85"/><rect x="808" y="170" width="5" height="24" rx="1.5" fill="#34d399" opacity="0.85"/><rect x="816" y="170" width="5" height="24" rx="1.5" fill="#34d399" opacity="0.85"/><rect x="824" y="170" width="5" height="24" rx="1.5" fill="#34d399" opacity="0.85"/><rect x="832" y="170" width="5" height="24" rx="1.5" fill="#34d399" opacity="0.85"/><rect x="840" y="170" width="5" height="24" rx="1.5" fill="#34d399" opacity="0.85"/><rect x="848" y="170" width="5" height="24" rx="1.5" fill="#34d399" opacity="0.85"/><rect x="856" y="170" width="5" height="24" rx="1.5" fill="#34d399" opacity="0.85"/><rect x="864" y="170" width="5" height="24" rx="1.5" fill="#34d399" opacity="0.85"/><rect x="872" y="170" width="5" height="24" rx="1.5" fill="#34d399" opacity="0.85"/><rect x="880" y="170" width="5" height="24" rx="1.5" fill="#34d399" opacity="0.85"/><rect x="888" y="170" width="5" height="24" rx="1.5" fill="#34d399" opacity="0.85"/><rect x="896" y="170" width="5" height="24" rx="1.5" fill="#34d399" opacity="0.85"/><rect x="904" y="170" width="5" height="24" rx="1.5" fill="#34d399" opacity="0.85"/><rect x="912" y="170" width="5" height="24" rx="1.5" fill="#34d399" opacity="0.85"/><rect x="920" y="170" width="5" height="24" rx="1.5" fill="#34d399" opacity="0.85"/><rect x="928" y="170" width="5" height="24" rx="1.5" fill="#34d399" opacity="0.85"/><rect x="936" y="170" width="5" height="24" rx="1.5" fill="#34d399" opacity="0.85"/>
    <text x="1060" y="188" text-anchor="end" font-family="'JetBrains Mono','SFMono-Regular',Consolas,'Liberation Mono',Menlo,monospace" font-size="16" fill="#8fa3bf">349 ms</text>
    <text x="1210" y="188" text-anchor="end" font-family="'JetBrains Mono','SFMono-Regular',Consolas,'Liberation Mono',Menlo,monospace" font-size="17" font-weight="700" fill="#34d399">100 %</text>
  </g>
  <g class="row" style="animation-delay:0.22999999999999998s">
    <rect x="40" y="220" width="1200" height="52" rx="12" fill="#0f1623"/>
    <circle cx="72" cy="246" r="11" fill="#34d399" opacity=".18" class="halo"/>
    <circle cx="72" cy="246" r="5.5" fill="#34d399"/>
    <text x="98" y="243" font-family="'Inter','Segoe UI','Helvetica Neue',Arial,sans-serif" font-size="19" font-weight="700" fill="#f4f7fc">Maison H Luxury</text>
    <text x="98" y="262" font-family="'JetBrains Mono','SFMono-Regular',Consolas,'Liberation Mono',Menlo,monospace" font-size="12.5" fill="#5b6b82">maison-h-luxury.fr  ·  e-commerce · WooCommerce</text>
    <rect x="560" y="234" width="5" height="24" rx="1.5" fill="#1a2333" opacity="1"/><rect x="568" y="234" width="5" height="24" rx="1.5" fill="#1a2333" opacity="1"/><rect x="576" y="234" width="5" height="24" rx="1.5" fill="#1a2333" opacity="1"/><rect x="584" y="234" width="5" height="24" rx="1.5" fill="#1a2333" opacity="1"/><rect x="592" y="234" width="5" height="24" rx="1.5" fill="#1a2333" opacity="1"/><rect x="600" y="234" width="5" height="24" rx="1.5" fill="#1a2333" opacity="1"/><rect x="608" y="234" width="5" height="24" rx="1.5" fill="#1a2333" opacity="1"/><rect x="616" y="234" width="5" height="24" rx="1.5" fill="#1a2333" opacity="1"/><rect x="624" y="234" width="5" height="24" rx="1.5" fill="#1a2333" opacity="1"/><rect x="632" y="234" width="5" height="24" rx="1.5" fill="#1a2333" opacity="1"/><rect x="640" y="234" width="5" height="24" rx="1.5" fill="#1a2333" opacity="1"/><rect x="648" y="234" width="5" height="24" rx="1.5" fill="#1a2333" opacity="1"/><rect x="656" y="234" width="5" height="24" rx="1.5" fill="#1a2333" opacity="1"/><rect x="664" y="234" width="5" height="24" rx="1.5" fill="#1a2333" opacity="1"/><rect x="672" y="234" width="5" height="24" rx="1.5" fill="#1a2333" opacity="1"/><rect x="680" y="234" width="5" height="24" rx="1.5" fill="#1a2333" opacity="1"/><rect x="688" y="234" width="5" height="24" rx="1.5" fill="#1a2333" opacity="1"/><rect x="696" y="234" width="5" height="24" rx="1.5" fill="#1a2333" opacity="1"/><rect x="704" y="234" width="5" height="24" rx="1.5" fill="#1a2333" opacity="1"/><rect x="712" y="234" width="5" height="24" rx="1.5" fill="#1a2333" opacity="1"/><rect x="720" y="234" width="5" height="24" rx="1.5" fill="#1a2333" opacity="1"/><rect x="728" y="234" width="5" height="24" rx="1.5" fill="#1a2333" opacity="1"/><rect x="736" y="234" width="5" height="24" rx="1.5" fill="#1a2333" opacity="1"/><rect x="744" y="234" width="5" height="24" rx="1.5" fill="#1a2333" opacity="1"/><rect x="752" y="234" width="5" height="24" rx="1.5" fill="#1a2333" opacity="1"/><rect x="760" y="234" width="5" height="24" rx="1.5" fill="#1a2333" opacity="1"/><rect x="768" y="234" width="5" height="24" rx="1.5" fill="#1a2333" opacity="1"/><rect x="776" y="234" width="5" height="24" rx="1.5" fill="#1a2333" opacity="1"/><rect x="784" y="234" width="5" height="24" rx="1.5" fill="#34d399" opacity="0.85"/><rect x="792" y="234" width="5" height="24" rx="1.5" fill="#34d399" opacity="0.85"/><rect x="800" y="234" width="5" height="24" rx="1.5" fill="#34d399" opacity="0.85"/><rect x="808" y="234" width="5" height="24" rx="1.5" fill="#34d399" opacity="0.85"/><rect x="816" y="234" width="5" height="24" rx="1.5" fill="#f87171" opacity="1"/><rect x="824" y="234" width="5" height="24" rx="1.5" fill="#34d399" opacity="0.85"/><rect x="832" y="234" width="5" height="24" rx="1.5" fill="#34d399" opacity="0.85"/><rect x="840" y="234" width="5" height="24" rx="1.5" fill="#34d399" opacity="0.85"/><rect x="848" y="234" width="5" height="24" rx="1.5" fill="#34d399" opacity="0.85"/><rect x="856" y="234" width="5" height="24" rx="1.5" fill="#34d399" opacity="0.85"/><rect x="864" y="234" width="5" height="24" rx="1.5" fill="#34d399" opacity="0.85"/><rect x="872" y="234" width="5" height="24" rx="1.5" fill="#34d399" opacity="0.85"/><rect x="880" y="234" width="5" height="24" rx="1.5" fill="#34d399" opacity="0.85"/><rect x="888" y="234" width="5" height="24" rx="1.5" fill="#34d399" opacity="0.85"/><rect x="896" y="234" width="5" height="24" rx="1.5" fill="#34d399" opacity="0.85"/><rect x="904" y="234" width="5" height="24" rx="1.5" fill="#34d399" opacity="0.85"/><rect x="912" y="234" width="5" height="24" rx="1.5" fill="#34d399" opacity="0.85"/><rect x="920" y="234" width="5" height="24" rx="1.5" fill="#34d399" opacity="0.85"/><rect x="928" y="234" width="5" height="24" rx="1.5" fill="#34d399" opacity="0.85"/><rect x="936" y="234" width="5" height="24" rx="1.5" fill="#34d399" opacity="0.85"/>
    <text x="1060" y="252" text-anchor="end" font-family="'JetBrains Mono','SFMono-Regular',Consolas,'Liberation Mono',Menlo,monospace" font-size="16" fill="#8fa3bf">1484 ms</text>
    <text x="1210" y="252" text-anchor="end" font-family="'JetBrains Mono','SFMono-Regular',Consolas,'Liberation Mono',Menlo,monospace" font-size="17" font-weight="700" fill="#f87171">95,00 %</text>
  </g>
  <g class="row" style="animation-delay:0.31s">
    <rect x="40" y="284" width="1200" height="52" rx="12" fill="#0f1623"/>
    <circle cx="72" cy="310" r="11" fill="#34d399" opacity=".18" class="halo"/>
    <circle cx="72" cy="310" r="5.5" fill="#34d399"/>
    <text x="98" y="307" font-family="'Inter','Segoe UI','Helvetica Neue',Arial,sans-serif" font-size="19" font-weight="700" fill="#f4f7fc">Kapital Max</text>
    <text x="98" y="326" font-family="'JetBrains Mono','SFMono-Regular',Consolas,'Liberation Mono',Menlo,monospace" font-size="12.5" fill="#5b6b82">kapitalmax.fr  ·  e-learning · WooCommerce</text>
    <rect x="560" y="298" width="5" height="24" rx="1.5" fill="#1a2333" opacity="1"/><rect x="568" y="298" width="5" height="24" rx="1.5" fill="#1a2333" opacity="1"/><rect x="576" y="298" width="5" height="24" rx="1.5" fill="#1a2333" opacity="1"/><rect x="584" y="298" width="5" height="24" rx="1.5" fill="#1a2333" opacity="1"/><rect x="592" y="298" width="5" height="24" rx="1.5" fill="#1a2333" opacity="1"/><rect x="600" y="298" width="5" height="24" rx="1.5" fill="#1a2333" opacity="1"/><rect x="608" y="298" width="5" height="24" rx="1.5" fill="#1a2333" opacity="1"/><rect x="616" y="298" width="5" height="24" rx="1.5" fill="#1a2333" opacity="1"/><rect x="624" y="298" width="5" height="24" rx="1.5" fill="#1a2333" opacity="1"/><rect x="632" y="298" width="5" height="24" rx="1.5" fill="#1a2333" opacity="1"/><rect x="640" y="298" width="5" height="24" rx="1.5" fill="#1a2333" opacity="1"/><rect x="648" y="298" width="5" height="24" rx="1.5" fill="#1a2333" opacity="1"/><rect x="656" y="298" width="5" height="24" rx="1.5" fill="#1a2333" opacity="1"/><rect x="664" y="298" width="5" height="24" rx="1.5" fill="#1a2333" opacity="1"/><rect x="672" y="298" width="5" height="24" rx="1.5" fill="#1a2333" opacity="1"/><rect x="680" y="298" width="5" height="24" rx="1.5" fill="#1a2333" opacity="1"/><rect x="688" y="298" width="5" height="24" rx="1.5" fill="#1a2333" opacity="1"/><rect x="696" y="298" width="5" height="24" rx="1.5" fill="#1a2333" opacity="1"/><rect x="704" y="298" width="5" height="24" rx="1.5" fill="#1a2333" opacity="1"/><rect x="712" y="298" width="5" height="24" rx="1.5" fill="#1a2333" opacity="1"/><rect x="720" y="298" width="5" height="24" rx="1.5" fill="#1a2333" opacity="1"/><rect x="728" y="298" width="5" height="24" rx="1.5" fill="#1a2333" opacity="1"/><rect x="736" y="298" width="5" height="24" rx="1.5" fill="#1a2333" opacity="1"/><rect x="744" y="298" width="5" height="24" rx="1.5" fill="#1a2333" opacity="1"/><rect x="752" y="298" width="5" height="24" rx="1.5" fill="#1a2333" opacity="1"/><rect x="760" y="298" width="5" height="24" rx="1.5" fill="#1a2333" opacity="1"/><rect x="768" y="298" width="5" height="24" rx="1.5" fill="#1a2333" opacity="1"/><rect x="776" y="298" width="5" height="24" rx="1.5" fill="#1a2333" opacity="1"/><rect x="784" y="298" width="5" height="24" rx="1.5" fill="#34d399" opacity="0.85"/><rect x="792" y="298" width="5" height="24" rx="1.5" fill="#34d399" opacity="0.85"/><rect x="800" y="298" width="5" height="24" rx="1.5" fill="#34d399" opacity="0.85"/><rect x="808" y="298" width="5" height="24" rx="1.5" fill="#34d399" opacity="0.85"/><rect x="816" y="298" width="5" height="24" rx="1.5" fill="#f87171" opacity="1"/><rect x="824" y="298" width="5" height="24" rx="1.5" fill="#34d399" opacity="0.85"/><rect x="832" y="298" width="5" height="24" rx="1.5" fill="#34d399" opacity="0.85"/><rect x="840" y="298" width="5" height="24" rx="1.5" fill="#34d399" opacity="0.85"/><rect x="848" y="298" width="5" height="24" rx="1.5" fill="#34d399" opacity="0.85"/><rect x="856" y="298" width="5" height="24" rx="1.5" fill="#34d399" opacity="0.85"/><rect x="864" y="298" width="5" height="24" rx="1.5" fill="#34d399" opacity="0.85"/><rect x="872" y="298" width="5" height="24" rx="1.5" fill="#34d399" opacity="0.85"/><rect x="880" y="298" width="5" height="24" rx="1.5" fill="#34d399" opacity="0.85"/><rect x="888" y="298" width="5" height="24" rx="1.5" fill="#34d399" opacity="0.85"/><rect x="896" y="298" width="5" height="24" rx="1.5" fill="#34d399" opacity="0.85"/><rect x="904" y="298" width="5" height="24" rx="1.5" fill="#34d399" opacity="0.85"/><rect x="912" y="298" width="5" height="24" rx="1.5" fill="#34d399" opacity="0.85"/><rect x="920" y="298" width="5" height="24" rx="1.5" fill="#34d399" opacity="0.85"/><rect x="928" y="298" width="5" height="24" rx="1.5" fill="#34d399" opacity="0.85"/><rect x="936" y="298" width="5" height="24" rx="1.5" fill="#34d399" opacity="0.85"/>
    <text x="1060" y="316" text-anchor="end" font-family="'JetBrains Mono','SFMono-Regular',Consolas,'Liberation Mono',Menlo,monospace" font-size="16" fill="#8fa3bf">3381 ms</text>
    <text x="1210" y="316" text-anchor="end" font-family="'JetBrains Mono','SFMono-Regular',Consolas,'Liberation Mono',Menlo,monospace" font-size="17" font-weight="700" fill="#f87171">95,00 %</text>
  </g>
  <g class="row" style="animation-delay:0.39s">
    <rect x="40" y="348" width="1200" height="52" rx="12" fill="#0f1623"/>
    <circle cx="72" cy="374" r="11" fill="#34d399" opacity=".18" class="halo"/>
    <circle cx="72" cy="374" r="5.5" fill="#34d399"/>
    <text x="98" y="371" font-family="'Inter','Segoe UI','Helvetica Neue',Arial,sans-serif" font-size="19" font-weight="700" fill="#f4f7fc">Camelia &amp; Ses Fleurs</text>
    <text x="98" y="390" font-family="'JetBrains Mono','SFMono-Regular',Consolas,'Liberation Mono',Menlo,monospace" font-size="12.5" fill="#5b6b82">cameliaetsesfleurs.com  ·  fleuriste · Shopify</text>
    <rect x="560" y="362" width="5" height="24" rx="1.5" fill="#1a2333" opacity="1"/><rect x="568" y="362" width="5" height="24" rx="1.5" fill="#1a2333" opacity="1"/><rect x="576" y="362" width="5" height="24" rx="1.5" fill="#1a2333" opacity="1"/><rect x="584" y="362" width="5" height="24" rx="1.5" fill="#1a2333" opacity="1"/><rect x="592" y="362" width="5" height="24" rx="1.5" fill="#1a2333" opacity="1"/><rect x="600" y="362" width="5" height="24" rx="1.5" fill="#1a2333" opacity="1"/><rect x="608" y="362" width="5" height="24" rx="1.5" fill="#1a2333" opacity="1"/><rect x="616" y="362" width="5" height="24" rx="1.5" fill="#1a2333" opacity="1"/><rect x="624" y="362" width="5" height="24" rx="1.5" fill="#1a2333" opacity="1"/><rect x="632" y="362" width="5" height="24" rx="1.5" fill="#1a2333" opacity="1"/><rect x="640" y="362" width="5" height="24" rx="1.5" fill="#1a2333" opacity="1"/><rect x="648" y="362" width="5" height="24" rx="1.5" fill="#1a2333" opacity="1"/><rect x="656" y="362" width="5" height="24" rx="1.5" fill="#1a2333" opacity="1"/><rect x="664" y="362" width="5" height="24" rx="1.5" fill="#1a2333" opacity="1"/><rect x="672" y="362" width="5" height="24" rx="1.5" fill="#1a2333" opacity="1"/><rect x="680" y="362" width="5" height="24" rx="1.5" fill="#1a2333" opacity="1"/><rect x="688" y="362" width="5" height="24" rx="1.5" fill="#1a2333" opacity="1"/><rect x="696" y="362" width="5" height="24" rx="1.5" fill="#1a2333" opacity="1"/><rect x="704" y="362" width="5" height="24" rx="1.5" fill="#1a2333" opacity="1"/><rect x="712" y="362" width="5" height="24" rx="1.5" fill="#1a2333" opacity="1"/><rect x="720" y="362" width="5" height="24" rx="1.5" fill="#1a2333" opacity="1"/><rect x="728" y="362" width="5" height="24" rx="1.5" fill="#1a2333" opacity="1"/><rect x="736" y="362" width="5" height="24" rx="1.5" fill="#1a2333" opacity="1"/><rect x="744" y="362" width="5" height="24" rx="1.5" fill="#1a2333" opacity="1"/><rect x="752" y="362" width="5" height="24" rx="1.5" fill="#1a2333" opacity="1"/><rect x="760" y="362" width="5" height="24" rx="1.5" fill="#1a2333" opacity="1"/><rect x="768" y="362" width="5" height="24" rx="1.5" fill="#1a2333" opacity="1"/><rect x="776" y="362" width="5" height="24" rx="1.5" fill="#1a2333" opacity="1"/><rect x="784" y="362" width="5" height="24" rx="1.5" fill="#34d399" opacity="0.85"/><rect x="792" y="362" width="5" height="24" rx="1.5" fill="#34d399" opacity="0.85"/><rect x="800" y="362" width="5" height="24" rx="1.5" fill="#34d399" opacity="0.85"/><rect x="808" y="362" width="5" height="24" rx="1.5" fill="#34d399" opacity="0.85"/><rect x="816" y="362" width="5" height="24" rx="1.5" fill="#34d399" opacity="0.85"/><rect x="824" y="362" width="5" height="24" rx="1.5" fill="#34d399" opacity="0.85"/><rect x="832" y="362" width="5" height="24" rx="1.5" fill="#34d399" opacity="0.85"/><rect x="840" y="362" width="5" height="24" rx="1.5" fill="#34d399" opacity="0.85"/><rect x="848" y="362" width="5" height="24" rx="1.5" fill="#34d399" opacity="0.85"/><rect x="856" y="362" width="5" height="24" rx="1.5" fill="#34d399" opacity="0.85"/><rect x="864" y="362" width="5" height="24" rx="1.5" fill="#34d399" opacity="0.85"/><rect x="872" y="362" width="5" height="24" rx="1.5" fill="#34d399" opacity="0.85"/><rect x="880" y="362" width="5" height="24" rx="1.5" fill="#34d399" opacity="0.85"/><rect x="888" y="362" width="5" height="24" rx="1.5" fill="#34d399" opacity="0.85"/><rect x="896" y="362" width="5" height="24" rx="1.5" fill="#34d399" opacity="0.85"/><rect x="904" y="362" width="5" height="24" rx="1.5" fill="#34d399" opacity="0.85"/><rect x="912" y="362" width="5" height="24" rx="1.5" fill="#34d399" opacity="0.85"/><rect x="920" y="362" width="5" height="24" rx="1.5" fill="#34d399" opacity="0.85"/><rect x="928" y="362" width="5" height="24" rx="1.5" fill="#34d399" opacity="0.85"/><rect x="936" y="362" width="5" height="24" rx="1.5" fill="#34d399" opacity="0.85"/>
    <text x="1060" y="380" text-anchor="end" font-family="'JetBrains Mono','SFMono-Regular',Consolas,'Liberation Mono',Menlo,monospace" font-size="16" fill="#8fa3bf">721 ms</text>
    <text x="1210" y="380" text-anchor="end" font-family="'JetBrains Mono','SFMono-Regular',Consolas,'Liberation Mono',Menlo,monospace" font-size="17" font-weight="700" fill="#34d399">100 %</text>
  </g>
  <g class="row" style="animation-delay:0.47s">
    <rect x="40" y="412" width="1200" height="52" rx="12" fill="#0f1623"/>
    <circle cx="72" cy="438" r="11" fill="#34d399" opacity=".18" class="halo"/>
    <circle cx="72" cy="438" r="5.5" fill="#34d399"/>
    <text x="98" y="435" font-family="'Inter','Segoe UI','Helvetica Neue',Arial,sans-serif" font-size="19" font-weight="700" fill="#f4f7fc">MOSL Habitat</text>
    <text x="98" y="454" font-family="'JetBrains Mono','SFMono-Regular',Consolas,'Liberation Mono',Menlo,monospace" font-size="12.5" fill="#5b6b82">moslhabitat.fr  ·  artisan · site statique</text>
    <rect x="560" y="426" width="5" height="24" rx="1.5" fill="#1a2333" opacity="1"/><rect x="568" y="426" width="5" height="24" rx="1.5" fill="#1a2333" opacity="1"/><rect x="576" y="426" width="5" height="24" rx="1.5" fill="#1a2333" opacity="1"/><rect x="584" y="426" width="5" height="24" rx="1.5" fill="#1a2333" opacity="1"/><rect x="592" y="426" width="5" height="24" rx="1.5" fill="#1a2333" opacity="1"/><rect x="600" y="426" width="5" height="24" rx="1.5" fill="#1a2333" opacity="1"/><rect x="608" y="426" width="5" height="24" rx="1.5" fill="#1a2333" opacity="1"/><rect x="616" y="426" width="5" height="24" rx="1.5" fill="#1a2333" opacity="1"/><rect x="624" y="426" width="5" height="24" rx="1.5" fill="#1a2333" opacity="1"/><rect x="632" y="426" width="5" height="24" rx="1.5" fill="#1a2333" opacity="1"/><rect x="640" y="426" width="5" height="24" rx="1.5" fill="#1a2333" opacity="1"/><rect x="648" y="426" width="5" height="24" rx="1.5" fill="#1a2333" opacity="1"/><rect x="656" y="426" width="5" height="24" rx="1.5" fill="#1a2333" opacity="1"/><rect x="664" y="426" width="5" height="24" rx="1.5" fill="#1a2333" opacity="1"/><rect x="672" y="426" width="5" height="24" rx="1.5" fill="#1a2333" opacity="1"/><rect x="680" y="426" width="5" height="24" rx="1.5" fill="#1a2333" opacity="1"/><rect x="688" y="426" width="5" height="24" rx="1.5" fill="#1a2333" opacity="1"/><rect x="696" y="426" width="5" height="24" rx="1.5" fill="#1a2333" opacity="1"/><rect x="704" y="426" width="5" height="24" rx="1.5" fill="#1a2333" opacity="1"/><rect x="712" y="426" width="5" height="24" rx="1.5" fill="#1a2333" opacity="1"/><rect x="720" y="426" width="5" height="24" rx="1.5" fill="#1a2333" opacity="1"/><rect x="728" y="426" width="5" height="24" rx="1.5" fill="#1a2333" opacity="1"/><rect x="736" y="426" width="5" height="24" rx="1.5" fill="#1a2333" opacity="1"/><rect x="744" y="426" width="5" height="24" rx="1.5" fill="#1a2333" opacity="1"/><rect x="752" y="426" width="5" height="24" rx="1.5" fill="#1a2333" opacity="1"/><rect x="760" y="426" width="5" height="24" rx="1.5" fill="#1a2333" opacity="1"/><rect x="768" y="426" width="5" height="24" rx="1.5" fill="#1a2333" opacity="1"/><rect x="776" y="426" width="5" height="24" rx="1.5" fill="#1a2333" opacity="1"/><rect x="784" y="426" width="5" height="24" rx="1.5" fill="#34d399" opacity="0.85"/><rect x="792" y="426" width="5" height="24" rx="1.5" fill="#34d399" opacity="0.85"/><rect x="800" y="426" width="5" height="24" rx="1.5" fill="#34d399" opacity="0.85"/><rect x="808" y="426" width="5" height="24" rx="1.5" fill="#34d399" opacity="0.85"/><rect x="816" y="426" width="5" height="24" rx="1.5" fill="#f87171" opacity="1"/><rect x="824" y="426" width="5" height="24" rx="1.5" fill="#34d399" opacity="0.85"/><rect x="832" y="426" width="5" height="24" rx="1.5" fill="#34d399" opacity="0.85"/><rect x="840" y="426" width="5" height="24" rx="1.5" fill="#34d399" opacity="0.85"/><rect x="848" y="426" width="5" height="24" rx="1.5" fill="#34d399" opacity="0.85"/><rect x="856" y="426" width="5" height="24" rx="1.5" fill="#34d399" opacity="0.85"/><rect x="864" y="426" width="5" height="24" rx="1.5" fill="#34d399" opacity="0.85"/><rect x="872" y="426" width="5" height="24" rx="1.5" fill="#34d399" opacity="0.85"/><rect x="880" y="426" width="5" height="24" rx="1.5" fill="#34d399" opacity="0.85"/><rect x="888" y="426" width="5" height="24" rx="1.5" fill="#34d399" opacity="0.85"/><rect x="896" y="426" width="5" height="24" rx="1.5" fill="#34d399" opacity="0.85"/><rect x="904" y="426" width="5" height="24" rx="1.5" fill="#34d399" opacity="0.85"/><rect x="912" y="426" width="5" height="24" rx="1.5" fill="#34d399" opacity="0.85"/><rect x="920" y="426" width="5" height="24" rx="1.5" fill="#34d399" opacity="0.85"/><rect x="928" y="426" width="5" height="24" rx="1.5" fill="#34d399" opacity="0.85"/><rect x="936" y="426" width="5" height="24" rx="1.5" fill="#34d399" opacity="0.85"/>
    <text x="1060" y="444" text-anchor="end" font-family="'JetBrains Mono','SFMono-Regular',Consolas,'Liberation Mono',Menlo,monospace" font-size="16" fill="#8fa3bf">837 ms</text>
    <text x="1210" y="444" text-anchor="end" font-family="'JetBrains Mono','SFMono-Regular',Consolas,'Liberation Mono',Menlo,monospace" font-size="17" font-weight="700" fill="#f87171">95,00 %</text>
  </g>
  <g class="row" style="animation-delay:0.55s">
    <rect x="40" y="476" width="1200" height="52" rx="12" fill="#0f1623"/>
    <circle cx="72" cy="502" r="11" fill="#34d399" opacity=".18" class="halo"/>
    <circle cx="72" cy="502" r="5.5" fill="#34d399"/>
    <text x="98" y="499" font-family="'Inter','Segoe UI','Helvetica Neue',Arial,sans-serif" font-size="19" font-weight="700" fill="#f4f7fc">Pizza Roma 78</text>
    <text x="98" y="518" font-family="'JetBrains Mono','SFMono-Regular',Consolas,'Liberation Mono',Menlo,monospace" font-size="12.5" fill="#5b6b82">pizzaroma78.com  ·  restaurant · HTML/CSS/JS</text>
    <rect x="560" y="490" width="5" height="24" rx="1.5" fill="#1a2333" opacity="1"/><rect x="568" y="490" width="5" height="24" rx="1.5" fill="#1a2333" opacity="1"/><rect x="576" y="490" width="5" height="24" rx="1.5" fill="#1a2333" opacity="1"/><rect x="584" y="490" width="5" height="24" rx="1.5" fill="#1a2333" opacity="1"/><rect x="592" y="490" width="5" height="24" rx="1.5" fill="#1a2333" opacity="1"/><rect x="600" y="490" width="5" height="24" rx="1.5" fill="#1a2333" opacity="1"/><rect x="608" y="490" width="5" height="24" rx="1.5" fill="#1a2333" opacity="1"/><rect x="616" y="490" width="5" height="24" rx="1.5" fill="#1a2333" opacity="1"/><rect x="624" y="490" width="5" height="24" rx="1.5" fill="#1a2333" opacity="1"/><rect x="632" y="490" width="5" height="24" rx="1.5" fill="#1a2333" opacity="1"/><rect x="640" y="490" width="5" height="24" rx="1.5" fill="#1a2333" opacity="1"/><rect x="648" y="490" width="5" height="24" rx="1.5" fill="#1a2333" opacity="1"/><rect x="656" y="490" width="5" height="24" rx="1.5" fill="#1a2333" opacity="1"/><rect x="664" y="490" width="5" height="24" rx="1.5" fill="#1a2333" opacity="1"/><rect x="672" y="490" width="5" height="24" rx="1.5" fill="#1a2333" opacity="1"/><rect x="680" y="490" width="5" height="24" rx="1.5" fill="#1a2333" opacity="1"/><rect x="688" y="490" width="5" height="24" rx="1.5" fill="#1a2333" opacity="1"/><rect x="696" y="490" width="5" height="24" rx="1.5" fill="#1a2333" opacity="1"/><rect x="704" y="490" width="5" height="24" rx="1.5" fill="#1a2333" opacity="1"/><rect x="712" y="490" width="5" height="24" rx="1.5" fill="#1a2333" opacity="1"/><rect x="720" y="490" width="5" height="24" rx="1.5" fill="#1a2333" opacity="1"/><rect x="728" y="490" width="5" height="24" rx="1.5" fill="#1a2333" opacity="1"/><rect x="736" y="490" width="5" height="24" rx="1.5" fill="#1a2333" opacity="1"/><rect x="744" y="490" width="5" height="24" rx="1.5" fill="#1a2333" opacity="1"/><rect x="752" y="490" width="5" height="24" rx="1.5" fill="#1a2333" opacity="1"/><rect x="760" y="490" width="5" height="24" rx="1.5" fill="#1a2333" opacity="1"/><rect x="768" y="490" width="5" height="24" rx="1.5" fill="#1a2333" opacity="1"/><rect x="776" y="490" width="5" height="24" rx="1.5" fill="#1a2333" opacity="1"/><rect x="784" y="490" width="5" height="24" rx="1.5" fill="#34d399" opacity="0.85"/><rect x="792" y="490" width="5" height="24" rx="1.5" fill="#34d399" opacity="0.85"/><rect x="800" y="490" width="5" height="24" rx="1.5" fill="#34d399" opacity="0.85"/><rect x="808" y="490" width="5" height="24" rx="1.5" fill="#34d399" opacity="0.85"/><rect x="816" y="490" width="5" height="24" rx="1.5" fill="#f87171" opacity="1"/><rect x="824" y="490" width="5" height="24" rx="1.5" fill="#34d399" opacity="0.85"/><rect x="832" y="490" width="5" height="24" rx="1.5" fill="#34d399" opacity="0.85"/><rect x="840" y="490" width="5" height="24" rx="1.5" fill="#34d399" opacity="0.85"/><rect x="848" y="490" width="5" height="24" rx="1.5" fill="#34d399" opacity="0.85"/><rect x="856" y="490" width="5" height="24" rx="1.5" fill="#34d399" opacity="0.85"/><rect x="864" y="490" width="5" height="24" rx="1.5" fill="#34d399" opacity="0.85"/><rect x="872" y="490" width="5" height="24" rx="1.5" fill="#34d399" opacity="0.85"/><rect x="880" y="490" width="5" height="24" rx="1.5" fill="#34d399" opacity="0.85"/><rect x="888" y="490" width="5" height="24" rx="1.5" fill="#34d399" opacity="0.85"/><rect x="896" y="490" width="5" height="24" rx="1.5" fill="#34d399" opacity="0.85"/><rect x="904" y="490" width="5" height="24" rx="1.5" fill="#34d399" opacity="0.85"/><rect x="912" y="490" width="5" height="24" rx="1.5" fill="#34d399" opacity="0.85"/><rect x="920" y="490" width="5" height="24" rx="1.5" fill="#34d399" opacity="0.85"/><rect x="928" y="490" width="5" height="24" rx="1.5" fill="#34d399" opacity="0.85"/><rect x="936" y="490" width="5" height="24" rx="1.5" fill="#34d399" opacity="0.85"/>
    <text x="1060" y="508" text-anchor="end" font-family="'JetBrains Mono','SFMono-Regular',Consolas,'Liberation Mono',Menlo,monospace" font-size="16" fill="#8fa3bf">578 ms</text>
    <text x="1210" y="508" text-anchor="end" font-family="'JetBrains Mono','SFMono-Regular',Consolas,'Liberation Mono',Menlo,monospace" font-size="17" font-weight="700" fill="#f87171">95,00 %</text>
  </g>
<text x="40" y="568" font-family="'JetBrains Mono','SFMono-Regular',Consolas,'Liberation Mono',Menlo,monospace" font-size="12.5" fill="#5b6b82">dernier relevé 10/10/2026 15:25 UTC  ·  20 relevés depuis le 05/10  ·  aucune donnée privée, rien que des requêtes publiques</text>
<text x="1240" y="568" text-anchor="end" font-family="'JetBrains Mono','SFMono-Regular',Consolas,'Liberation Mono',Menlo,monospace" font-size="12.5" fill="#36e0ff">ONE HUMAN · A PACK OF AGENTS</text>
</svg>
